<?xml version="1.0" encoding="utf-8"?>
<!-- Generator: Adobe Illustrator 27.1.1, SVG Export Plug-In . SVG Version: 6.00 Build 0)  -->
<svg version="1.1" id="Layer_1" xmlns="http://www.w3.org/2000/svg" xmlns:xlink="http://www.w3.org/1999/xlink" x="0px" y="0px"
	 viewBox="0 0 546 546" style="enable-background:new 0 0 546 546;" xml:space="preserve">
<style type="text/css">
	.st0{fill:#FFFFFF;}
</style>
<g>
	<path d="M0,284c0-7.3,0-14.7,0-22c0.3-1.8,0.7-3.6,0.9-5.4C2,246.4,2.4,236,4.3,225.9C17.6,154.8,53,97.3,110.8,53.8
		C148,26,189.8,9.1,235.8,2.9c8.7-1.2,17.4-2,26.2-2.9c7.3,0,14.7,0,22,0c0.8,0.2,1.5,0.6,2.3,0.7c13,1.5,26.2,2.1,39.1,4.7
		c66.8,13.5,121.5,47.3,163.4,101.1c29.7,38.1,47.8,81.4,54.2,129.4c1.2,9,2,18.1,2.9,27.2c0,6.7,0,13.3,0,20
		c-0.3,2.1-0.6,4.2-0.9,6.4c-1.1,10.2-1.6,20.6-3.4,30.7c-12.8,69.1-46.7,125.6-102.1,168.8c-38.1,29.7-81.4,47.8-129.4,54.2
		c-8.7,1.2-17.4,2-26.2,2.9c-7.3,0-14.7,0-22,0c-1.8-0.3-3.6-0.7-5.3-0.9c-12-1.5-24.2-2.1-36.1-4.5
		C153.9,527.1,99.4,493.5,57.5,440c-30-38.4-48.2-81.9-54.6-130.2C1.7,301.2,0.9,292.6,0,284z M371.5,170.6L371.5,170.6
		c-0.3,1.5-0.2,3.2-0.9,4.6c-5.7,11.2-13.7,20.4-23.4,28.3c-10.4,8.5-22.6,13.3-35.1,17.4c-6.3,2.1-7.1,3.7-5.5,9.9
		c16.3-2.9,28.9-8.4,37.4-16.4c4.9-4.5,9.9-8.9,14.5-13.7c4.9-5,9.8-10.1,13.9-15.7c14-19.1,23-40.5,20.6-64.2
		c-3.3-32.3-18.6-59.4-42.5-81.4c-9.4-8.7-21.1-13.7-33.9-14.3c-34.7-1.7-63.7,11-87.9,36.2c0.2-1.2,0-2.9,0.8-3.9
		c2.9-3.8,5.5-8,9.2-10.9C255.2,33.4,274.3,26,295.2,23c1.3-0.2,2.6-0.5,3.9-0.7C207.4,10.6,96.5,56,44.6,164.5
		c-49.7,103.8-22.7,227.4,65.7,302c84.4,71.2,191.5,69.7,255.5,41c-13.2-26.3-26.4-52.6-39.4-79c-2-4.1-3.3-8.5-5-13
		c-0.3,0-1.2,0.2-2,0.3c-2.5-6.9,4.6-6.6,7.1-9.9c-0.4-1-0.8-2.1-1.3-3.1c-8.5-16.9-16.9-33.9-25.4-50.8c-3-5.9-4-6.1-10.2-2.1
		c9.6,19.7,19.3,39.4,29,59.2c-0.4,0.2-0.8,0.5-1.2,0.7c-1.4-1.8-3.1-3.4-4.1-5.3c-6.5-12.5-12.9-25.1-19.1-37.8
		c-2.8-5.7-5.2-11.5-7.9-17.2c-1.5-3.4-1.3-6.1,2.3-7.9c3.5-1.8,6.8-2,9.2,1.6c3.2,4.8,6.7,9.6,9.2,14.8
		c7.3,15.3,16.8,29.4,21.7,45.8c0.8,2.8,1.5,5.6,2.3,8.5c-2.8,1.1-4.9,1.9-8,3.1c15.6,30.7,31.1,61,46.5,91.4c4.9-1.6,1.9-4.4,1-6.3
		c-10.2-22.9-20.6-45.8-31-68.7c-1.1-2.5-2.2-5-3.3-7.4c0.4-0.2,0.9-0.5,1.3-0.7c3.9,6.4,8.1,12.6,11.5,19.2
		c2.5,5,3.7,10.7,5.9,15.8c6.8,15.1,13.8,30.2,20.7,45.2c83.6-35.2,160.2-130.6,149.2-253.6C514.5,133.9,429.1,53.4,343.8,30.5
		c4.6,3.5,10.5,6.5,14.2,11.3c9.4,12,19.1,24.1,26.3,37.5c12,22.4,16,46.8,8.2,71.6c-9.3,29.6-27.6,52.9-53,70.5
		c-3.6,2.5-7.8,4.7-12,6c-26.1,7.5-49,20.9-71.3,35.8c-1.9-2.4-4.1-5.3-6.3-8.1c6.6-7.3,12.4-14.8,21.5-18.8
		c16.5-7.2,32.5-15.6,49.1-22.2C342.7,205.3,357.4,188.4,371.5,170.6z M277.2,247.7c0.2-0.6,0.5-1.2,0.7-1.8c-2-2-3.7-4.5-6.1-5.7
		c-1.2-0.6-3.6,1.2-5.5,1.9c0.2,0.4,0.4,0.8,0.6,1.3c1.6-0.4,3.2-0.8,5.2-1.4c-0.6,1.2-1,1.9-1.5,2.9c1.5,0.1,2.8,0.2,4.7,0.4
		c-1.9,1.1-3.2,1.9-4.4,2.6c0.1,0.4,0.3,0.8,0.4,1.2C273.2,248.6,275.2,248.1,277.2,247.7z M262.3,244.1c2.1,2.8,3.6,5,5.6,7.7
		C269.4,245.9,268.6,244.8,262.3,244.1z"/>
	<path class="st0" d="M371.5,170.6c-14.1,17.9-28.8,34.7-50.9,43.5c-16.7,6.6-32.7,15-49.1,22.2c-9.1,4-15,11.4-21.5,18.8
		c2.2,2.8,4.4,5.7,6.3,8.1c22.2-14.9,45.2-28.3,71.3-35.8c4.2-1.2,8.4-3.4,12-6c25.4-17.7,43.8-40.9,53-70.5
		c7.8-24.8,3.8-49.1-8.2-71.6C377.1,66,367.4,53.8,358,41.8c-3.7-4.8-9.7-7.8-14.2-11.3c85.3,22.8,170.7,103.4,181.1,219.6
		c11,123-65.6,218.4-149.2,253.6c-6.9-15.1-14-30.1-20.7-45.2c-2.3-5.1-3.4-10.8-5.9-15.8c-3.4-6.6-7.6-12.8-11.5-19.2
		c-0.4,0.2-0.9,0.5-1.3,0.7c1.1,2.5,2.2,5,3.3,7.4c10.3,22.9,20.7,45.7,31,68.7c0.8,1.9,3.8,4.8-1,6.3
		c-15.4-30.3-30.9-60.7-46.5-91.4c3.1-1.2,5.2-2,8-3.1c-0.8-2.9-1.4-5.7-2.3-8.5c-4.9-16.4-14.4-30.6-21.7-45.8
		c-2.5-5.2-6-10-9.2-14.8c-2.4-3.6-5.7-3.4-9.2-1.6c-3.6,1.9-3.9,4.6-2.3,7.9c2.6,5.7,5.1,11.6,7.9,17.2
		c6.3,12.6,12.7,25.2,19.1,37.8c1,2,2.7,3.6,4.1,5.3c0.4-0.2,0.8-0.5,1.2-0.7c-9.7-19.7-19.3-39.5-29-59.2c6.2-4,7.2-3.8,10.2,2.1
		c8.5,16.9,17,33.9,25.4,50.8c0.5,1,0.9,2.1,1.3,3.1c-2.5,3.4-9.6,3.1-7.1,9.9c0.8-0.1,1.7-0.3,2-0.3c1.7,4.5,3,8.9,5,13
		c13,26.4,26.2,52.7,39.4,79c-63.9,28.7-171.1,30.2-255.5-41c-88.4-74.6-115.4-198.2-65.7-302C96.5,56,207.4,10.6,299,22.3
		c-1.3,0.2-2.6,0.5-3.9,0.7c-20.8,3-39.9,10.4-56.5,23.4c-3.7,2.9-6.3,7.1-9.2,10.9c-0.8,1-0.6,2.7-0.8,3.9
		C252.8,36,281.8,23.4,316.5,25c12.8,0.6,24.5,5.6,33.9,14.3c23.9,21.9,39.3,49,42.5,81.4c2.4,23.7-6.6,45.2-20.6,64.2
		c-4.1,5.6-9,10.7-13.9,15.7c-4.6,4.8-9.7,9.2-14.5,13.7c-8.5,8-21.1,13.5-37.4,16.4c-1.5-6.2-0.8-7.8,5.5-9.9
		c12.5-4.2,24.7-9,35.1-17.4c9.7-7.9,17.7-17.1,23.4-28.3C371.2,173.8,371.2,172.1,371.5,170.6c0.9-0.2,2.3,0,2.7-0.6
		c2.7-3.5,5.8-6.9,7.6-10.9c5.1-11.4,5.6-23.5,4.3-35.8c-3.3-31.8-16.7-58.4-41.5-78.7c-14.1-11.6-30.3-17.1-48.8-14.8
		c-22.4,2.8-40.6,14.3-57.1,28.8c-3.2,2.9-6.1,7.1-5.8,13.3c4.7-5,8.4-9.2,12.4-13.1c10-10,21.4-17.8,34.7-23
		c21.3-8.3,41.1-5.5,58.8,8.4c32.4,25.3,46.4,59.1,43.9,99.8C382.1,153.9,379.2,163.5,371.5,170.6z M247.4,279.7
		c4.3,6.9,8.9,13.7,12.8,20.8c6.2,11.2,12,22.7,18,33.9c1.6,3.1,3.7,5.9,5.6,8.8c0.5-0.2,0.9-0.5,1.4-0.7c-0.9-2.3-1.6-4.6-2.6-6.8
		c-3.5-7.5-6.9-15.1-10.6-22.6c-10.3-20.8-22.4-40.5-38.8-57.2c-3.3-3.4-6.8-5.6-11.7-5.5c-3.6,0-7.2-0.6-11.1-0.9
		c0.5-44,1-87.5,1.5-131c-0.6,0-1.3,0-1.9,0c-4,37.2-2.2,74.6-2.7,112c-9.2-43.1-14.5-86.1,1.6-129.2c-1.5,0.7-3.1,1.6-3.5,2.9
		c-2.2,6.1-4.9,12.1-6.1,18.4c-7.2,36.1-4.4,71.9,3.7,107.5c0.4,1.6,0.9,3.6,2,4.4c4.5,3.2,2.9,7.4,2.9,11.8
		c-5.1-2-7.6-5.6-8.5-10.1c-3.5-17.9-7.6-35.8-9.8-53.9c-2.5-19.7-2.4-39.7,2.6-59.1c2.1-8.1,5.8-15.9,9-24.4
		c-1.3,1.4-2.6,2.4-3.2,3.7c-2.4,4.9-5.1,9.7-6.9,14.9c-5.9,17.3-6.6,35.3-6.2,53.3c0.6,23.3,3.4,46.2,11.2,68.2
		c1.1,3,2.6,7.3,5,8.3c6.4,2.7,7.8,7.1,7.3,13.1c0,0.1,0.5,0.3,1.1,0.5c0.6-2.2,1.2-4.3,1.8-6.5c3.6,0,6.9-0.3,10.2,0.1
		c6.7,0.7,8.4,4.4,5.1,10.3c-3.9,6.9-1.4,13,6.3,15.4c2.5,0.8,4.9,2.1,7.3,3.2c-0.2,0.4-0.3,0.7-0.5,1.1c-2.1-0.9-4.2-1.8-6.3-2.6
		c-0.3,0.4-0.6,0.8-0.9,1.3c2.6,2.2,5.3,4.3,7.9,6.5c-0.2,0.5-0.3,1.1-0.5,1.6c-11.5,0-22.9,0-34.4,0c0,0.5,0,1,0,1.5
		c10.8,5.2,22,3.3,33.3,0.6c0.4,3.3,0.7,6.1,1.2,9.6c-13.8,0-27.2,0-40.7,0c-0.1,0.5-0.1,1-0.2,1.5c2.2,0.5,4.3,1.1,6.5,1.6
		c11.5,2.6,23,2.3,34.8-1.7c-3.8,6.6-35.9,7-46,0.4c1.3,2.5,2.1,3.7,2.6,5.1c1,2.4,2.7,4.9,2.6,7.3c-0.7,18.3-1,36.7-2.8,54.9
		c-2.3,23.2-10.4,43.8-28.5,59.9c-4.3,3.8-7.4,9.5-9.6,14.9c-4.8,11.6,2.4,26.2,14.5,29.8c-1.5-2.1-2.8-4-4.2-5.8
		c-11.9-16.1-11.3-23.2,3.1-37c1.2-1.2,2.4-2.3,3.5-3.5c10.8-11.3,18.1-24.5,21.6-39.9c4.5-20.1,6.7-40.4,5.3-61
		c-0.4-5.2-0.1-10.5-0.1-16c8.1,0,15.9,0,23.8,0c-6.7,4.5-13.8,3.6-21.3,2c1,2,2.4,3.3,3.5,4.7c1.2,1.5,3.1,3.1,3.1,4.7
		c0.3,7.8,0.1,15.7,0.1,23.5c-0.6,0-1.3,0-1.9,0.1c-0.9-5.8-1.9-11.6-2.8-17.4c-1.4,1.5-2,3-1.8,4.4c0.6,5.4,1,11,2.3,16.3
		c3.1,12.3,5,43.9,2.9,53.6c-0.5,0.1-1,0.1-1.4,0.2c-1.8-12-3.5-24-5.4-37.1c-3.3,11-2.7,20.9,0.9,30.3c4.2,11.1,9.4,21.7,6.6,34.1
		c-0.7,3.2,1.6,6.1,5.3,5.5c2.9-0.4,5.7-2.1,8.5-3.1c-0.1-0.3-0.2-0.7-0.3-1c-2.8,0-5.7,0-8.6,0c0-4.4,0-8.4,0-12
		c5.1,4,9.9,8.3,15.2,11.8c5.3,3.4,11.2,6,16.7,9c13.4,7.5,13.4,7.5,17.8,7c-1.7-1.1-3.1-2-4.5-2.8c-10.2-5.9-20.5-11.8-30.7-17.8
		c-1.9-1.1-4.6-2.9-4.8-4.6c-1-8.4-1.3-16.9-1.9-25.4c8.5,9.2,15.3,19.2,26.4,24.7c-3.8-5.1-7.7-10.2-12.3-14.3
		c-14.1-12.5-16.1-28.6-13.8-46.1c4,7.2,8.4,14.3,10.6,22.1c4.9,17.7,13.7,32.7,26.5,45.7c3.3,3.3,6.4,6.8,9.6,10.2
		c12.6,13.2,2,33-11.5,36.1c-12.9,2.9-25.8,4.9-39.1,4.3c-2.9-0.1-5.9,0-8.8,0c0,0.4,0,0.8,0.1,1.3c16.4,2.8,32.7,1.5,48.8-1.8
		c-29,12.5-58,13.1-87-0.8c1.1,3.9,3.6,6.5,7.9,7.5c4.9,1.1,9.7,2.2,14.6,3.1c19.4,3.7,38.8,4,57.7-2.7c3.6-1.3,6.9-3.7,10-6.1
		c2.6-2,4.5-4.8,6.8-7.2c8.6-8.8,13.3-17.5,9.2-27.5c-2.1-5.1-5.9-9.6-9.6-13.8c-4.9-5.8-10.6-11-15.6-16.9
		c-10.7-12.4-16.8-26.6-16.6-43.3c0.3-18.5,0.2-37,0.2-55.5c0-1-0.3-1.9-0.5-2.9c-0.6,0-1.2,0-1.8,0c-1,18.6-2,37.3-3,55.7
		c-7.4-7.9-11.8-25.8-9-37.3c2.3,6.5,4.6,13.1,7,19.7c0.5-0.2,1.1-0.4,1.6-0.6c-2.4-9.7-4.8-19.5-7.2-29.1c-6.2-0.2-3.4,5.1-5.7,7.6
		c-0.2-1.3-0.2-2.3-0.5-3.3c-1.3-4.4-0.6-7.3,4.7-8.3c2-0.4,4.1-2.5,5.2-4.4c1.5-2.6,3.4-3.4,6.2-3.6c6-0.5,8.5-3.5,8.4-9.5
		c0-2.5-0.2-5-0.6-7.5c-1.2-6.2,0.2-11.6,4.9-15.9L247.4,279.7z M292,335.8c0.4-0.2,0.8-0.3,1.2-0.5c-0.4-1.2-0.6-2.5-1.2-3.6
		c-12.2-21.8-24-43.7-36.8-65.2c-3.4-5.8-8.9-10.8-14.5-14.7c-6.6-4.6-10.8-10-10.7-18c0.4-31.1,1-62.3,1.5-93.4
		c0.1-7.1,0.8-14.3,0-21.4c-0.8-7.5-3.1-14.8-4.6-21.6c-2.7,0.7-6.1,1.6-9.4,2.5c1.9,1,4.6,1.6,5.3,3c3.8,7.9,8.1,15.6,6.2,25.1
		c-0.8,4-0.5,8.3-0.8,12.5c-2.1,32.4-3.3,64.9-0.6,97.3c0.4,5.2,0.4,9.2,6.6,12.9c11.3,6.8,19.5,17.4,26,29.1
		c9.1,16.6,18.5,33.1,27.7,49.6C289.2,331.8,290.7,333.8,292,335.8z M281.4,86.8c-4,0.8-6.9,1.4-9.9,1.8c-8.7,1.3-17.5,5.2-26-0.7
		c-0.9-0.6-2.3-0.5-3.4-0.5c-14.3-0.2-28.6-0.5-43-0.4c-3,0-5.9,1.8-8.9,2.6c-2.3,0.7-4.9,1.9-7.1,1.5c-7.2-1.2-14.4-2.9-22.8-4.8
		c11.9,9,40.1,14.1,47.1,9.1c-5.2-1-10.3-2-15.4-2.9c0.1-0.4,0.2-0.9,0.3-1.3c18-3.4,36-3,54,1.4c-5.2,0.7-10.5,1.4-15.7,2.1
		C245.1,99.2,271.6,95.1,281.4,86.8z M156.8,81c0.2,0.6,0.4,1.2,0.7,1.7c41.1-5.7,82.2-5.7,123.4-1.2c-16.9-7.2-35-4.7-52.8-6.3
		c3.4-7,3.1-9.1-1.7-13.9c0.4,3,0.7,5.7,1.1,8.6c-4.7,0.9-9,1.6-13.2,2.6c-3,0.8-5.8,2.7-8.8,3c-12.9,1-25.9,1.5-38.9,2.5
		C163.4,78.4,160.1,80,156.8,81z M189.5,417.5c-5.1,20.1,24.2,49.6,47.4,51.3c-2.3-1.4-3.6-2.3-4.9-3.1c-6.2-3.8-12.6-7.5-18.7-11.4
		c-12.3-7.9-20.8-18.5-22.4-33.6C190.8,419.9,190.3,419.2,189.5,417.5z M220.4,477.7c-10.1-5.2-18.9-9.6-27.6-14.3
		c-9.3-5-13.4-14.2-18.4-24.2C176.5,458.5,199,477.3,220.4,477.7z M198,299.3c0-1.8,0.2-3.7,0-5.5c-0.7-4.6,0.9-7.8,4.8-10.5
		c3-2.1,5.7-4.7,8-7.4c3.2-3.7,2.7-7.2-1.3-10.7c1.1,6.7-2.7,9.6-8.1,11.6c-3.5,1.3-6.6,3.1-6,8.2c1.3-0.7,2.3-1.3,4.5-2.5
		C196,288.5,194.6,293.6,198,299.3z M164.5,450.5c0.4,11.1,20.6,26.7,34.5,26.8C186.8,468.9,172.1,464.3,164.5,450.5z M211.4,114.9
		c4.6-6.1,5-16,1-21.4C212,100.7,211.7,107.4,211.4,114.9z"/>
	<path class="st0" d="M277.2,247.7c-2,0.5-4,0.9-6,1.4c-0.1-0.4-0.3-0.8-0.4-1.2c1.3-0.8,2.6-1.5,4.4-2.6c-1.9-0.2-3.2-0.3-4.7-0.4
		c0.5-1,0.9-1.7,1.5-2.9c-2,0.5-3.6,0.9-5.2,1.4c-0.2-0.4-0.4-0.8-0.6-1.3c1.9-0.7,4.3-2.5,5.5-1.9c2.4,1.2,4.1,3.7,6.1,5.7
		C277.7,246.5,277.5,247.1,277.2,247.7z"/>
	<path class="st0" d="M262.3,244.1c6.3,0.8,7.1,1.8,5.6,7.7C266,249,264.4,246.9,262.3,244.1z"/>
	<path d="M247.5,279.6c-4.7,4.3-6.1,9.7-4.9,15.9c0.5,2.4,0.6,5,0.6,7.5c0.1,6-2.4,9-8.4,9.5c-2.8,0.2-4.7,1-6.2,3.6
		c-1.1,1.9-3.2,4-5.2,4.4c-5.3,1-6,3.8-4.7,8.3c0.3,0.9,0.3,1.9,0.5,3.3c2.2-2.5-0.5-7.8,5.7-7.6c2.4,9.6,4.8,19.4,7.2,29.1
		c-0.5,0.2-1.1,0.4-1.6,0.6c-2.3-6.6-4.7-13.2-7-19.7c-2.7,11.5,1.6,29.4,9,37.3c1-18.5,2-37.1,3-55.7c0.6,0,1.2,0,1.8,0
		c0.2,1,0.5,1.9,0.5,2.9c0,18.5,0,37-0.2,55.5c-0.2,16.7,5.9,30.9,16.6,43.3c5,5.8,10.7,11,15.6,16.9c3.6,4.3,7.4,8.8,9.6,13.8
		c4.2,10-0.5,18.7-9.2,27.5c-2.3,2.4-4.3,5.1-6.8,7.2c-3.1,2.4-6.4,4.8-10,6.1c-18.9,6.7-38.3,6.3-57.7,2.7
		c-4.9-0.9-9.8-2.1-14.6-3.1c-4.3-0.9-6.8-3.6-7.9-7.5c29.1,13.9,58,13.3,87,0.8c-16.1,3.3-32.4,4.6-48.8,1.8c0-0.4,0-0.8-0.1-1.3
		c2.9,0,5.9-0.1,8.8,0c13.3,0.5,26.2-1.4,39.1-4.3c13.5-3.1,24.1-22.9,11.5-36.1c-3.2-3.4-6.3-6.8-9.6-10.2
		c-12.8-13-21.6-28-26.5-45.7c-2.2-7.8-6.6-14.9-10.6-22.1c-2.2,17.5-0.3,33.6,13.8,46.1c4.7,4.2,8.5,9.3,12.3,14.3
		c-11.2-5.5-17.9-15.5-26.4-24.7c0.6,8.5,0.9,17,1.9,25.4c0.2,1.7,2.9,3.5,4.8,4.6c10.2,6,20.5,11.9,30.7,17.8
		c1.4,0.8,2.7,1.7,4.5,2.8c-4.4,0.5-4.3,0.5-17.8-7c-5.5-3.1-11.4-5.6-16.7-9c-5.3-3.5-10.2-7.8-15.2-11.8c0,3.6,0,7.6,0,12
		c2.9,0,5.7,0,8.6,0c0.1,0.3,0.2,0.7,0.3,1c-2.8,1.1-5.6,2.7-8.5,3.1c-3.7,0.6-6-2.3-5.3-5.5c2.8-12.5-2.4-23.1-6.6-34.1
		c-3.6-9.4-4.2-19.4-0.9-30.3c1.9,13.1,3.7,25.1,5.4,37.1c0.5-0.1,1-0.1,1.4-0.2c2.1-9.7,0.2-41.3-2.9-53.6
		c-1.3-5.3-1.7-10.8-2.3-16.3c-0.2-1.4,0.4-3,1.8-4.4c0.9,5.8,1.9,11.6,2.8,17.4c0.6,0,1.3,0,1.9-0.1c0-7.8,0.2-15.7-0.1-23.5
		c-0.1-1.6-1.9-3.2-3.1-4.7c-1.2-1.4-2.5-2.7-3.5-4.7c7.5,1.6,14.6,2.5,21.3-2c-7.9,0-15.7,0-23.8,0c0,5.5-0.3,10.7,0.1,16
		c1.4,20.6-0.7,40.9-5.3,61c-3.5,15.4-10.7,28.6-21.6,39.9c-1.2,1.2-2.3,2.4-3.5,3.5c-14.4,13.8-15,20.8-3.1,37
		c1.3,1.8,2.7,3.7,4.2,5.8c-12.1-3.6-19.3-18.2-14.5-29.8c2.2-5.4,5.3-11.2,9.6-14.9c18.1-16,26.3-36.7,28.5-59.9
		c1.8-18.2,2.1-36.6,2.8-54.9c0.1-2.4-1.6-4.9-2.6-7.3c-0.6-1.4-1.3-2.7-2.6-5.1c10.1,6.5,42.1,6.1,46-0.4
		c-11.8,3.9-23.3,4.2-34.8,1.7c-2.2-0.5-4.3-1.1-6.5-1.6c0.1-0.5,0.1-1,0.2-1.5c13.4,0,26.9,0,40.7,0c-0.4-3.5-0.8-6.3-1.2-9.6
		c-11.3,2.7-22.5,4.7-33.3-0.6c0-0.5,0-1,0-1.5c11.5,0,22.9,0,34.4,0c0.2-0.5,0.3-1.1,0.5-1.6c-2.6-2.2-5.3-4.3-7.9-6.5
		c0.3-0.4,0.6-0.8,0.9-1.3c2.1,0.9,4.2,1.8,6.3,2.6c0.2-0.4,0.3-0.7,0.5-1.1c-2.4-1.1-4.8-2.3-7.3-3.2c-7.7-2.5-10.3-8.6-6.3-15.4
		c3.4-5.9,1.6-9.6-5.1-10.3c-3.3-0.3-6.6-0.1-10.2-0.1c-0.6,2.2-1.2,4.3-1.8,6.5c-0.6-0.3-1.1-0.4-1.1-0.5c0.5-6-0.9-10.5-7.3-13.1
		c-2.4-1-3.9-5.2-5-8.3c-7.8-22.1-10.7-45-11.2-68.2c-0.4-18.1,0.3-36,6.2-53.3c1.7-5.2,4.4-10,6.9-14.9c0.7-1.3,2-2.3,3.2-3.7
		c-3.2,8.5-6.9,16.2-9,24.4c-5,19.4-5.1,39.4-2.6,59.1c2.3,18.1,6.3,36,9.8,53.9c0.9,4.5,3.5,8.2,8.5,10.1c0-4.4,1.6-8.7-2.9-11.8
		c-1.2-0.8-1.7-2.8-2-4.4c-8.1-35.6-10.9-71.4-3.7-107.5c1.3-6.3,3.9-12.3,6.1-18.4c0.5-1.3,2-2.2,3.5-2.9
		c-16.2,43.1-10.8,86.1-1.6,129.2c0.5-37.3-1.3-74.7,2.7-112c0.6,0,1.3,0,1.9,0c-0.5,43.5-1,87-1.5,131c3.9,0.4,7.5,1,11.1,0.9
		c4.9,0,8.4,2.2,11.7,5.5c16.4,16.7,28.5,36.4,38.8,57.2c3.7,7.4,7.2,15,10.6,22.6c1,2.2,1.7,4.5,2.6,6.8c-0.5,0.2-0.9,0.5-1.4,0.7
		c-1.9-2.9-3.9-5.8-5.6-8.8c-6.1-11.3-11.8-22.7-18-33.9c-3.9-7.1-8.5-13.9-12.8-20.8c-5.2-7.5-10.4-15.1-16-23.3
		c-2.2,7.8-6.4,14.6,1.6,22.6c2.2-3,4.1-5.7,6.1-8.5c0.3,0.3,0.6,0.5,0.9,0.8c-1,1.8-2,3.6-2.9,5.1
		C239.6,281.6,243.5,280.7,247.5,279.6z M221.4,421.6c0.7-16.3,0.7-31.4-6.6-44.4c0,10.3,0.1,21.3,0,32.3
		C214.8,414.4,216.9,417.9,221.4,421.6z M215,332c-2.7,19-1.8,41.6,5.4,50.2C221.9,365.3,220.4,349.1,215,332z"/>
	<path d="M292,335.8c-1.3-2.1-2.8-4-4-6.2c-9.3-16.5-18.6-33-27.7-49.6c-6.5-11.7-14.8-22.4-26-29.1c-6.2-3.7-6.1-7.8-6.6-12.9
		c-2.7-32.5-1.4-64.9,0.6-97.3c0.3-4.2-0.1-8.4,0.8-12.5c1.9-9.4-2.4-17.2-6.2-25.1c-0.7-1.5-3.4-2-5.3-3c3.3-0.9,6.7-1.8,9.4-2.5
		c1.5,6.8,3.8,14.1,4.6,21.6c0.8,7,0.1,14.3,0,21.4c-0.5,31.1-1.1,62.3-1.5,93.4c-0.1,7.9,4.1,13.4,10.7,18
		c5.6,3.9,11,8.9,14.5,14.7C268,288,279.9,310,292,331.7c0.6,1.1,0.8,2.4,1.2,3.6C292.8,335.5,292.4,335.7,292,335.8z"/>
	<path d="M371.5,170.6c7.7-7.1,10.6-16.6,11.2-26.4c2.6-40.7-11.5-74.5-43.9-99.8c-17.8-13.9-37.5-16.7-58.8-8.4
		c-13.3,5.2-24.7,13-34.7,23c-4,4-7.7,8.1-12.4,13.1c-0.3-6.3,2.6-10.5,5.8-13.3c16.5-14.5,34.6-26,57.1-28.8
		c18.5-2.3,34.7,3.2,48.8,14.8c24.8,20.3,38.1,46.9,41.5,78.7c1.3,12.3,0.9,24.4-4.3,35.8c-1.8,4-4.9,7.4-7.6,10.9
		C373.8,170.5,372.4,170.4,371.5,170.6C371.5,170.6,371.5,170.6,371.5,170.6z"/>
	<path d="M281.4,86.8c-9.7,8.2-36.3,12.4-50.9,7.9c5.2-0.7,10.5-1.4,15.7-2.1c-18-4.3-35.9-4.7-54-1.4c-0.1,0.4-0.2,0.9-0.3,1.3
		c5.1,1,10.2,1.9,15.4,2.9c-7,5-35.3-0.1-47.1-9.1c8.5,1.8,15.6,3.6,22.8,4.8c2.2,0.4,4.8-0.9,7.1-1.5c3-0.8,5.9-2.6,8.9-2.6
		c14.3-0.1,28.6,0.2,43,0.4c1.2,0,2.6-0.1,3.4,0.5c8.6,5.9,17.3,2,26,0.7C274.4,88.2,277.4,87.6,281.4,86.8z"/>
	<path d="M156.8,81c3.3-1,6.6-2.7,9.9-2.9c12.9-1,25.9-1.5,38.9-2.5c3-0.2,5.8-2.2,8.8-3c4.2-1.1,8.5-1.7,13.2-2.6
		c-0.4-2.9-0.7-5.5-1.1-8.6c4.8,4.8,5.1,6.9,1.7,13.9c17.7,1.6,35.8-0.8,52.8,6.3c-41.2-4.6-82.4-4.5-123.4,1.2
		C157.3,82.2,157,81.6,156.8,81z"/>
	<path d="M189.5,417.5c0.7,1.8,1.2,2.4,1.3,3.1c1.6,15.1,10.1,25.7,22.4,33.6c6.2,3.9,12.5,7.6,18.7,11.4c1.3,0.8,2.7,1.7,4.9,3.1
		C213.8,467,184.4,437.5,189.5,417.5z"/>
	<path d="M220.4,477.7c-21.5-0.4-43.9-19.2-46-38.5c4.9,10,9.1,19.2,18.4,24.2C201.5,468.1,210.3,472.5,220.4,477.7z"/>
	<path d="M198,299.3c-3.4-5.7-2-10.8,1.9-16.9c-2.2,1.2-3.2,1.8-4.5,2.5c-0.6-5,2.6-6.9,6-8.2c5.4-1.9,9.1-4.8,8.1-11.6
		c4,3.5,4.5,7,1.3,10.7c-2.4,2.8-5.1,5.4-8,7.4c-3.9,2.7-5.5,5.9-4.8,10.5C198.3,295.6,198,297.5,198,299.3z"/>
	<path d="M164.5,450.5c7.6,13.7,22.3,18.4,34.5,26.8C185.1,477.2,165,461.7,164.5,450.5z"/>
	<path d="M211.4,114.9c0.3-7.5,0.7-14.2,1-21.4C216.4,98.9,216,108.8,211.4,114.9z"/>
	<path class="st0" d="M221.4,421.6c-4.5-3.7-6.7-7.2-6.6-12.2c0.1-11,0-21.9,0-32.3C222.2,390.2,222.2,405.3,221.4,421.6z"/>
	<path class="st0" d="M215,332c5.4,17,6.9,33.3,5.4,50.2C213.2,373.7,212.3,351,215,332z"/>
	<path class="st0" d="M247.5,279.6c-4,1.1-7.9,2-10.5-3.2c0.9-1.5,1.9-3.3,2.9-5.1c-0.3-0.3-0.6-0.5-0.9-0.8c-2,2.7-3.9,5.4-6.1,8.5
		c-8-8-3.8-14.7-1.6-22.6c5.7,8.3,10.8,15.8,16,23.3C247.4,279.7,247.5,279.6,247.5,279.6z"/>
</g>
</svg>
